# xmcd CD database file
#
# Track frame offsets:
#	150
#	17170
#	33236
#	55893
#	75922
#	96943
#	109368
#	126767
#	141701
#	165706
#
# Disc length: 2548 seconds
#
# Revision: 0
# Processed by: cddbd v1.5.1PL0 Copyright (c) Steve Scherf et al.
# Submitted via: CDex 1.51
#
DISCID=8409f20a
DTITLE=David Holt - Perpetual Motion
DYEAR=2004
DGENRE=Blues
TTITLE0=Til The Wheels Fall Off
TTITLE1=Walk On The Moon Again
TTITLE2=Mistaken Identity
TTITLE3=Leave A Message
TTITLE4=Fool Who Knows
TTITLE5=Man In The Abyss
TTITLE6=Outta This World
TTITLE7=Roadblock
TTITLE8=Searchin' Understone
TTITLE9=One Seam At A Time
EXTD=YEAR: 2004
EXTT0=
EXTT1=
EXTT2=
EXTT3=
EXTT4=
EXTT5=
EXTT6=
EXTT7=
EXTT8=
EXTT9=
PLAYORDER=
